<mxfile host="app.diagrams.net" modified="2024-05-15T01:54:33.418Z" agent="Mozilla/5.0 (Windows NT 10.0; Win64; x64) AppleWebKit/537.36 (KHTML, like Gecko) Chrome/124.0.0.0 Safari/537.36" etag="YVVvKiTSLerpT6x2dnDU" version="24.4.0" type="github">
  <diagram id="VOp5mjlp2HQmrB3yNQmH" name="第 1 页">
    <mxGraphModel dx="1539" dy="655" grid="1" gridSize="10" guides="1" tooltips="1" connect="1" arrows="1" fold="1" page="1" pageScale="1" pageWidth="827" pageHeight="1169" math="0" shadow="0">
      <root>
        <mxCell id="0" />
        <mxCell id="1" parent="0" />
        <mxCell id="-aMOJ7WB9ZFkgqsZZZWB-4" style="edgeStyle=orthogonalEdgeStyle;rounded=0;orthogonalLoop=1;jettySize=auto;html=1;exitX=1;exitY=0.5;exitDx=0;exitDy=0;entryX=0;entryY=0.5;entryDx=0;entryDy=0;fontSize=14;" parent="1" source="-aMOJ7WB9ZFkgqsZZZWB-1" target="-aMOJ7WB9ZFkgqsZZZWB-2" edge="1">
          <mxGeometry relative="1" as="geometry" />
        </mxCell>
        <mxCell id="-aMOJ7WB9ZFkgqsZZZWB-1" value="豆瓣电影数爬虫" style="rounded=1;whiteSpace=wrap;html=1;fillColor=#e1d5e7;strokeColor=#9673a6;fontSize=14;" parent="1" vertex="1">
          <mxGeometry x="263" y="380" width="120" height="50" as="geometry" />
        </mxCell>
        <mxCell id="-aMOJ7WB9ZFkgqsZZZWB-5" style="edgeStyle=orthogonalEdgeStyle;rounded=0;orthogonalLoop=1;jettySize=auto;html=1;exitX=0.5;exitY=1;exitDx=0;exitDy=0;entryX=0.5;entryY=0;entryDx=0;entryDy=0;fontSize=14;" parent="1" source="-aMOJ7WB9ZFkgqsZZZWB-2" target="-aMOJ7WB9ZFkgqsZZZWB-3" edge="1">
          <mxGeometry relative="1" as="geometry" />
        </mxCell>
        <mxCell id="-aMOJ7WB9ZFkgqsZZZWB-2" value="基于scrapy的豆瓣电影信息爬虫" style="rounded=1;whiteSpace=wrap;html=1;fillColor=#e1d5e7;strokeColor=#9673a6;fontSize=14;" parent="1" vertex="1">
          <mxGeometry x="443" y="380" width="227" height="50" as="geometry" />
        </mxCell>
        <mxCell id="-aMOJ7WB9ZFkgqsZZZWB-3" value="爬取电影基础信息" style="rounded=1;whiteSpace=wrap;html=1;fillColor=#e1d5e7;strokeColor=#9673a6;fontSize=14;" parent="1" vertex="1">
          <mxGeometry x="444.5" y="460" width="228.5" height="30" as="geometry" />
        </mxCell>
        <mxCell id="-aMOJ7WB9ZFkgqsZZZWB-12" value="" style="rounded=1;whiteSpace=wrap;html=1;fontSize=14;fillColor=#f5f5f5;strokeColor=#666666;fontColor=#333333;" parent="1" vertex="1">
          <mxGeometry x="103" y="680" width="550" height="160" as="geometry" />
        </mxCell>
        <mxCell id="-aMOJ7WB9ZFkgqsZZZWB-6" value="推荐算法" style="rounded=1;whiteSpace=wrap;html=1;fontSize=14;fillColor=#d5e8d4;strokeColor=#82b366;" parent="1" vertex="1">
          <mxGeometry x="123" y="710" width="130" height="110" as="geometry" />
        </mxCell>
        <mxCell id="-aMOJ7WB9ZFkgqsZZZWB-7" value="ItemCF" style="rounded=1;whiteSpace=wrap;html=1;fontSize=14;fillColor=#f5f5f5;strokeColor=#666666;fontColor=#333333;" parent="1" vertex="1">
          <mxGeometry x="273" y="710" width="106" height="40" as="geometry" />
        </mxCell>
        <mxCell id="-aMOJ7WB9ZFkgqsZZZWB-10" value="UserCF" style="rounded=1;whiteSpace=wrap;html=1;fontSize=14;fillColor=#f5f5f5;strokeColor=#666666;fontColor=#333333;" parent="1" vertex="1">
          <mxGeometry x="393" y="710" width="106" height="40" as="geometry" />
        </mxCell>
        <mxCell id="-aMOJ7WB9ZFkgqsZZZWB-11" value="SVD" style="rounded=1;whiteSpace=wrap;html=1;fontSize=14;fillColor=#f5f5f5;strokeColor=#666666;fontColor=#333333;" parent="1" vertex="1">
          <mxGeometry x="513" y="710" width="106" height="40" as="geometry" />
        </mxCell>
        <mxCell id="-aMOJ7WB9ZFkgqsZZZWB-13" value="ALS-MLP" style="rounded=1;whiteSpace=wrap;html=1;fontSize=14;fillColor=#dae8fc;strokeColor=#6c8ebf;" parent="1" vertex="1">
          <mxGeometry x="273" y="770" width="106" height="40" as="geometry" />
        </mxCell>
        <mxCell id="-aMOJ7WB9ZFkgqsZZZWB-14" value="CNN" style="rounded=1;whiteSpace=wrap;html=1;fontSize=14;fillColor=#dae8fc;strokeColor=#6c8ebf;" parent="1" vertex="1">
          <mxGeometry x="393" y="770" width="106" height="40" as="geometry" />
        </mxCell>
        <mxCell id="-aMOJ7WB9ZFkgqsZZZWB-15" value="RNN" style="rounded=1;whiteSpace=wrap;html=1;fontSize=14;fillColor=#dae8fc;strokeColor=#6c8ebf;" parent="1" vertex="1">
          <mxGeometry x="513" y="770" width="106" height="40" as="geometry" />
        </mxCell>
        <mxCell id="-aMOJ7WB9ZFkgqsZZZWB-16" value="&amp;nbsp; &amp;nbsp;Item Based CF : 基于Item的协同过滤推荐算法&amp;nbsp;" style="rounded=1;whiteSpace=wrap;html=1;fontSize=14;fillColor=#f5f5f5;strokeColor=#666666;fontColor=#333333;align=left;" parent="1" vertex="1">
          <mxGeometry x="103" y="860" width="550" height="40" as="geometry" />
        </mxCell>
        <mxCell id="-aMOJ7WB9ZFkgqsZZZWB-17" value="&amp;nbsp; &amp;nbsp;User Based CF :&amp;nbsp; 基于User的协同过滤推荐算法" style="rounded=1;whiteSpace=wrap;html=1;fontSize=14;fillColor=#f5f5f5;strokeColor=#666666;fontColor=#333333;align=left;" parent="1" vertex="1">
          <mxGeometry x="103" y="910" width="550" height="40" as="geometry" />
        </mxCell>
        <mxCell id="-aMOJ7WB9ZFkgqsZZZWB-18" value="&amp;nbsp; &amp;nbsp;SVD : SVD是最常见的降维算法，利用矩阵的奇异值分解处理评分矩阵" style="rounded=1;whiteSpace=wrap;html=1;fontSize=14;fillColor=#f5f5f5;strokeColor=#666666;fontColor=#333333;align=left;" parent="1" vertex="1">
          <mxGeometry x="103" y="960" width="550" height="40" as="geometry" />
        </mxCell>
        <mxCell id="-aMOJ7WB9ZFkgqsZZZWB-19" value="&amp;nbsp; &amp;nbsp;ALS-MLP :&amp;nbsp; 对评分矩阵进行分解后，用交替最小二乘法评估缺失值实现推荐，因ALS原理较为简单，所以结合多层神经网络来提升表现。(PyTorch)" style="rounded=1;whiteSpace=wrap;html=1;fontSize=14;fillColor=#dae8fc;strokeColor=#6c8ebf;align=left;" parent="1" vertex="1">
          <mxGeometry x="103" y="1075" width="550" height="40" as="geometry" />
        </mxCell>
        <mxCell id="-aMOJ7WB9ZFkgqsZZZWB-20" value="&amp;nbsp; &amp;nbsp;CNN :&amp;nbsp; 提取用户/物品的特征向量，利用卷积神经网络模型来实现推荐(PyTorch)" style="rounded=1;whiteSpace=wrap;html=1;fontSize=14;fillColor=#dae8fc;strokeColor=#6c8ebf;align=left;" parent="1" vertex="1">
          <mxGeometry x="103" y="1129" width="550" height="40" as="geometry" />
        </mxCell>
        <mxCell id="-aMOJ7WB9ZFkgqsZZZWB-21" value="&amp;nbsp; &amp;nbsp;RNN :&amp;nbsp; 提取用户/物品的特征向量，利用循环神经网络模型来实现推荐 (PyTorch)" style="rounded=1;whiteSpace=wrap;html=1;fontSize=14;fillColor=#dae8fc;strokeColor=#6c8ebf;align=left;" parent="1" vertex="1">
          <mxGeometry x="103" y="1180" width="550" height="40" as="geometry" />
        </mxCell>
        <mxCell id="-aMOJ7WB9ZFkgqsZZZWB-22" value="" style="shape=curlyBracket;whiteSpace=wrap;html=1;rounded=1;flipH=1;fontSize=14;" parent="1" vertex="1">
          <mxGeometry x="673" y="1080" width="20" height="130" as="geometry" />
        </mxCell>
        <mxCell id="-aMOJ7WB9ZFkgqsZZZWB-23" value="深度学习" style="rounded=1;whiteSpace=wrap;html=1;fontSize=14;fillColor=#dae8fc;strokeColor=#6c8ebf;align=center;" parent="1" vertex="1">
          <mxGeometry x="703" y="1115" width="100" height="40" as="geometry" />
        </mxCell>
        <mxCell id="-aMOJ7WB9ZFkgqsZZZWB-51" style="edgeStyle=orthogonalEdgeStyle;rounded=0;orthogonalLoop=1;jettySize=auto;html=1;exitX=1;exitY=0.5;exitDx=0;exitDy=0;entryX=0;entryY=0.5;entryDx=0;entryDy=0;fontSize=13;" parent="1" source="-aMOJ7WB9ZFkgqsZZZWB-25" target="-aMOJ7WB9ZFkgqsZZZWB-35" edge="1">
          <mxGeometry relative="1" as="geometry" />
        </mxCell>
        <mxCell id="-aMOJ7WB9ZFkgqsZZZWB-52" style="edgeStyle=orthogonalEdgeStyle;rounded=0;orthogonalLoop=1;jettySize=auto;html=1;exitX=1;exitY=0.5;exitDx=0;exitDy=0;entryX=0;entryY=0.5;entryDx=0;entryDy=0;fontSize=13;" parent="1" source="-aMOJ7WB9ZFkgqsZZZWB-25" target="-aMOJ7WB9ZFkgqsZZZWB-39" edge="1">
          <mxGeometry relative="1" as="geometry" />
        </mxCell>
        <mxCell id="-aMOJ7WB9ZFkgqsZZZWB-53" style="edgeStyle=orthogonalEdgeStyle;rounded=0;orthogonalLoop=1;jettySize=auto;html=1;exitX=1;exitY=0.5;exitDx=0;exitDy=0;entryX=0;entryY=0.5;entryDx=0;entryDy=0;fontSize=13;" parent="1" source="-aMOJ7WB9ZFkgqsZZZWB-25" target="-aMOJ7WB9ZFkgqsZZZWB-36" edge="1">
          <mxGeometry relative="1" as="geometry" />
        </mxCell>
        <mxCell id="-aMOJ7WB9ZFkgqsZZZWB-55" style="edgeStyle=orthogonalEdgeStyle;rounded=0;orthogonalLoop=1;jettySize=auto;html=1;exitX=1;exitY=0.5;exitDx=0;exitDy=0;entryX=0;entryY=0.5;entryDx=0;entryDy=0;fontSize=13;" parent="1" source="-aMOJ7WB9ZFkgqsZZZWB-25" target="-aMOJ7WB9ZFkgqsZZZWB-37" edge="1">
          <mxGeometry relative="1" as="geometry" />
        </mxCell>
        <mxCell id="0jEX740wsoMFDmwRTyFC-14" style="edgeStyle=orthogonalEdgeStyle;rounded=0;orthogonalLoop=1;jettySize=auto;html=1;exitX=1;exitY=0.5;exitDx=0;exitDy=0;entryX=0;entryY=0.5;entryDx=0;entryDy=0;" parent="1" source="-aMOJ7WB9ZFkgqsZZZWB-25" target="-aMOJ7WB9ZFkgqsZZZWB-1" edge="1">
          <mxGeometry relative="1" as="geometry" />
        </mxCell>
        <mxCell id="-aMOJ7WB9ZFkgqsZZZWB-25" value="电影推荐可视化" style="rounded=1;whiteSpace=wrap;html=1;fontSize=14;fillColor=#dae8fc;strokeColor=#6c8ebf;" parent="1" vertex="1">
          <mxGeometry x="50" y="200" width="160" height="60" as="geometry" />
        </mxCell>
        <mxCell id="-aMOJ7WB9ZFkgqsZZZWB-35" value="登录与注册" style="rounded=1;whiteSpace=wrap;html=1;fontSize=15;fillColor=#d5e8d4;strokeColor=#82b366;" parent="1" vertex="1">
          <mxGeometry x="263" y="50" width="120" height="40" as="geometry" />
        </mxCell>
        <mxCell id="-aMOJ7WB9ZFkgqsZZZWB-59" style="edgeStyle=orthogonalEdgeStyle;rounded=0;orthogonalLoop=1;jettySize=auto;html=1;exitX=1;exitY=0.5;exitDx=0;exitDy=0;entryX=0;entryY=0.5;entryDx=0;entryDy=0;fontSize=13;" parent="1" source="-aMOJ7WB9ZFkgqsZZZWB-36" target="-aMOJ7WB9ZFkgqsZZZWB-44" edge="1">
          <mxGeometry relative="1" as="geometry" />
        </mxCell>
        <mxCell id="-aMOJ7WB9ZFkgqsZZZWB-36" value="数据分析可视化" style="rounded=1;whiteSpace=wrap;html=1;fontSize=15;fillColor=#d5e8d4;strokeColor=#82b366;" parent="1" vertex="1">
          <mxGeometry x="263" y="210" width="120" height="40" as="geometry" />
        </mxCell>
        <mxCell id="-aMOJ7WB9ZFkgqsZZZWB-61" style="edgeStyle=orthogonalEdgeStyle;rounded=0;orthogonalLoop=1;jettySize=auto;html=1;exitX=1;exitY=0.5;exitDx=0;exitDy=0;entryX=0;entryY=0.5;entryDx=0;entryDy=0;fontSize=13;" parent="1" source="-aMOJ7WB9ZFkgqsZZZWB-37" target="-aMOJ7WB9ZFkgqsZZZWB-38" edge="1">
          <mxGeometry relative="1" as="geometry" />
        </mxCell>
        <mxCell id="-aMOJ7WB9ZFkgqsZZZWB-37" value="词&amp;nbsp; &amp;nbsp; 云" style="rounded=1;whiteSpace=wrap;html=1;fontSize=15;fillColor=#d5e8d4;strokeColor=#82b366;" parent="1" vertex="1">
          <mxGeometry x="263" y="300" width="120" height="40" as="geometry" />
        </mxCell>
        <mxCell id="-aMOJ7WB9ZFkgqsZZZWB-38" value="[电影简介] 词云" style="rounded=1;whiteSpace=wrap;html=1;fontSize=15;fillColor=#d5e8d4;strokeColor=#82b366;" parent="1" vertex="1">
          <mxGeometry x="423" y="300" width="137" height="40" as="geometry" />
        </mxCell>
        <mxCell id="-aMOJ7WB9ZFkgqsZZZWB-57" style="edgeStyle=orthogonalEdgeStyle;rounded=0;orthogonalLoop=1;jettySize=auto;html=1;exitX=1;exitY=0.5;exitDx=0;exitDy=0;entryX=0;entryY=0.5;entryDx=0;entryDy=0;fontSize=13;" parent="1" source="-aMOJ7WB9ZFkgqsZZZWB-39" target="-aMOJ7WB9ZFkgqsZZZWB-41" edge="1">
          <mxGeometry relative="1" as="geometry" />
        </mxCell>
        <mxCell id="-aMOJ7WB9ZFkgqsZZZWB-58" style="edgeStyle=orthogonalEdgeStyle;rounded=0;orthogonalLoop=1;jettySize=auto;html=1;exitX=1;exitY=0.5;exitDx=0;exitDy=0;entryX=0;entryY=0.5;entryDx=0;entryDy=0;fontSize=13;" parent="1" source="-aMOJ7WB9ZFkgqsZZZWB-39" target="-aMOJ7WB9ZFkgqsZZZWB-43" edge="1">
          <mxGeometry relative="1" as="geometry" />
        </mxCell>
        <mxCell id="0jEX740wsoMFDmwRTyFC-12" style="edgeStyle=orthogonalEdgeStyle;rounded=0;orthogonalLoop=1;jettySize=auto;html=1;exitX=1;exitY=0.5;exitDx=0;exitDy=0;" parent="1" source="-aMOJ7WB9ZFkgqsZZZWB-39" edge="1">
          <mxGeometry relative="1" as="geometry">
            <mxPoint x="430" y="140" as="targetPoint" />
          </mxGeometry>
        </mxCell>
        <mxCell id="0jEX740wsoMFDmwRTyFC-13" style="edgeStyle=orthogonalEdgeStyle;rounded=0;orthogonalLoop=1;jettySize=auto;html=1;exitX=1;exitY=0.5;exitDx=0;exitDy=0;entryX=0;entryY=0.5;entryDx=0;entryDy=0;" parent="1" source="-aMOJ7WB9ZFkgqsZZZWB-39" target="0jEX740wsoMFDmwRTyFC-11" edge="1">
          <mxGeometry relative="1" as="geometry" />
        </mxCell>
        <mxCell id="-aMOJ7WB9ZFkgqsZZZWB-39" value="电影推荐" style="rounded=1;whiteSpace=wrap;html=1;fontSize=15;fillColor=#d5e8d4;strokeColor=#82b366;" parent="1" vertex="1">
          <mxGeometry x="263" y="120" width="120" height="40" as="geometry" />
        </mxCell>
        <mxCell id="-aMOJ7WB9ZFkgqsZZZWB-41" value="UserCF、ItemCF&lt;br&gt;双协同过滤推荐算法" style="rounded=1;whiteSpace=wrap;html=1;fontSize=13;fillColor=#d5e8d4;strokeColor=#82b366;" parent="1" vertex="1">
          <mxGeometry x="431.5" y="50" width="120" height="40" as="geometry" />
        </mxCell>
        <mxCell id="-aMOJ7WB9ZFkgqsZZZWB-43" value="SVD 推荐算法" style="rounded=1;whiteSpace=wrap;html=1;fontSize=13;fillColor=#d5e8d4;strokeColor=#82b366;" parent="1" vertex="1">
          <mxGeometry x="431.5" y="100" width="120" height="20" as="geometry" />
        </mxCell>
        <mxCell id="-aMOJ7WB9ZFkgqsZZZWB-62" style="edgeStyle=orthogonalEdgeStyle;rounded=0;orthogonalLoop=1;jettySize=auto;html=1;exitX=1;exitY=0.5;exitDx=0;exitDy=0;entryX=0;entryY=0.5;entryDx=0;entryDy=0;fontSize=13;" parent="1" source="-aMOJ7WB9ZFkgqsZZZWB-44" target="-aMOJ7WB9ZFkgqsZZZWB-45" edge="1">
          <mxGeometry relative="1" as="geometry" />
        </mxCell>
        <mxCell id="-aMOJ7WB9ZFkgqsZZZWB-63" style="edgeStyle=orthogonalEdgeStyle;rounded=0;orthogonalLoop=1;jettySize=auto;html=1;exitX=1;exitY=0.5;exitDx=0;exitDy=0;entryX=0;entryY=0.5;entryDx=0;entryDy=0;fontSize=13;" parent="1" source="-aMOJ7WB9ZFkgqsZZZWB-44" target="-aMOJ7WB9ZFkgqsZZZWB-46" edge="1">
          <mxGeometry relative="1" as="geometry" />
        </mxCell>
        <mxCell id="-aMOJ7WB9ZFkgqsZZZWB-64" style="edgeStyle=orthogonalEdgeStyle;rounded=0;orthogonalLoop=1;jettySize=auto;html=1;exitX=1;exitY=0.5;exitDx=0;exitDy=0;entryX=0;entryY=0.5;entryDx=0;entryDy=0;fontSize=13;" parent="1" source="-aMOJ7WB9ZFkgqsZZZWB-44" target="-aMOJ7WB9ZFkgqsZZZWB-47" edge="1">
          <mxGeometry relative="1" as="geometry" />
        </mxCell>
        <mxCell id="-aMOJ7WB9ZFkgqsZZZWB-44" value="Echarts 可视化" style="rounded=1;whiteSpace=wrap;html=1;fontSize=15;fillColor=#d5e8d4;strokeColor=#82b366;" parent="1" vertex="1">
          <mxGeometry x="431.5" y="210" width="120" height="40" as="geometry" />
        </mxCell>
        <mxCell id="-aMOJ7WB9ZFkgqsZZZWB-45" value="世界地图" style="rounded=1;whiteSpace=wrap;html=1;fontSize=15;fillColor=#d5e8d4;strokeColor=#82b366;" parent="1" vertex="1">
          <mxGeometry x="620" y="175" width="110" height="30" as="geometry" />
        </mxCell>
        <mxCell id="-aMOJ7WB9ZFkgqsZZZWB-46" value="柱/线/饼状图" style="rounded=1;whiteSpace=wrap;html=1;fontSize=15;fillColor=#d5e8d4;strokeColor=#82b366;" parent="1" vertex="1">
          <mxGeometry x="620" y="215" width="110" height="30" as="geometry" />
        </mxCell>
        <mxCell id="-aMOJ7WB9ZFkgqsZZZWB-47" value="漏斗图/仪表盘" style="rounded=1;whiteSpace=wrap;html=1;fontSize=15;fillColor=#d5e8d4;strokeColor=#82b366;" parent="1" vertex="1">
          <mxGeometry x="621" y="255" width="110" height="30" as="geometry" />
        </mxCell>
        <mxCell id="0jEX740wsoMFDmwRTyFC-1" value="&amp;nbsp; &amp;nbsp;混合CF（ALS） :&amp;nbsp; 对评分矩阵进行分解后，用交替最小二乘法评估缺失值实现推荐" style="rounded=1;whiteSpace=wrap;html=1;fontSize=14;fillColor=#dae8fc;strokeColor=#6c8ebf;align=left;" parent="1" vertex="1">
          <mxGeometry x="103" y="1020" width="550" height="40" as="geometry" />
        </mxCell>
        <mxCell id="0jEX740wsoMFDmwRTyFC-2" value="" style="shape=image;html=1;verticalAlign=top;verticalLabelPosition=bottom;labelBackgroundColor=#ffffff;imageAspect=0;aspect=fixed;image=https://cdn1.iconfinder.com/data/icons/CrystalClear/128x128/actions/button_ok.png" parent="1" vertex="1">
          <mxGeometry x="40" y="860" width="48" height="48" as="geometry" />
        </mxCell>
        <mxCell id="0jEX740wsoMFDmwRTyFC-3" value="" style="shape=image;html=1;verticalAlign=top;verticalLabelPosition=bottom;labelBackgroundColor=#ffffff;imageAspect=0;aspect=fixed;image=https://cdn1.iconfinder.com/data/icons/CrystalClear/128x128/actions/button_ok.png" parent="1" vertex="1">
          <mxGeometry x="40" y="908" width="48" height="48" as="geometry" />
        </mxCell>
        <mxCell id="0jEX740wsoMFDmwRTyFC-8" value="混合CF" style="rounded=1;whiteSpace=wrap;html=1;fontSize=13;fillColor=#d5e8d4;strokeColor=#82b366;" parent="1" vertex="1">
          <mxGeometry x="431.5" y="130" width="120" height="20" as="geometry" />
        </mxCell>
        <mxCell id="0jEX740wsoMFDmwRTyFC-11" value="混合CF+神经网络" style="rounded=1;whiteSpace=wrap;html=1;fontSize=13;fillColor=#d5e8d4;strokeColor=#82b366;" parent="1" vertex="1">
          <mxGeometry x="431.5" y="160" width="120" height="20" as="geometry" />
        </mxCell>
        <mxCell id="4sxwdQ2FRn1By4ORZ0Yz-13" style="edgeStyle=orthogonalEdgeStyle;rounded=0;orthogonalLoop=1;jettySize=auto;html=1;exitX=0.5;exitY=0;exitDx=0;exitDy=0;entryX=0.5;entryY=1;entryDx=0;entryDy=0;fontSize=16;" parent="1" source="4sxwdQ2FRn1By4ORZ0Yz-1" target="4sxwdQ2FRn1By4ORZ0Yz-2" edge="1">
          <mxGeometry relative="1" as="geometry" />
        </mxCell>
        <mxCell id="4sxwdQ2FRn1By4ORZ0Yz-1" value="特征矩阵" style="rounded=1;whiteSpace=wrap;html=1;dashed=1;fillColor=#dae8fc;strokeColor=#6c8ebf;fontSize=16;" parent="1" vertex="1">
          <mxGeometry x="189" y="1640" width="430" height="50" as="geometry" />
        </mxCell>
        <mxCell id="4sxwdQ2FRn1By4ORZ0Yz-14" style="edgeStyle=orthogonalEdgeStyle;rounded=0;orthogonalLoop=1;jettySize=auto;html=1;exitX=0.5;exitY=0;exitDx=0;exitDy=0;entryX=0.5;entryY=1;entryDx=0;entryDy=0;fontSize=16;" parent="1" source="4sxwdQ2FRn1By4ORZ0Yz-2" target="4sxwdQ2FRn1By4ORZ0Yz-3" edge="1">
          <mxGeometry relative="1" as="geometry" />
        </mxCell>
        <mxCell id="4sxwdQ2FRn1By4ORZ0Yz-2" value="CNN卷积神经网络" style="rounded=1;whiteSpace=wrap;html=1;fillColor=#dae8fc;strokeColor=#6c8ebf;fontSize=16;" parent="1" vertex="1">
          <mxGeometry x="187" y="1550" width="430" height="60" as="geometry" />
        </mxCell>
        <mxCell id="4sxwdQ2FRn1By4ORZ0Yz-15" style="edgeStyle=orthogonalEdgeStyle;rounded=0;orthogonalLoop=1;jettySize=auto;html=1;exitX=0.5;exitY=0;exitDx=0;exitDy=0;entryX=0.5;entryY=1;entryDx=0;entryDy=0;fontSize=16;" parent="1" source="4sxwdQ2FRn1By4ORZ0Yz-3" target="4sxwdQ2FRn1By4ORZ0Yz-4" edge="1">
          <mxGeometry relative="1" as="geometry" />
        </mxCell>
        <mxCell id="4sxwdQ2FRn1By4ORZ0Yz-3" value="Hidden Layer 1" style="rounded=1;whiteSpace=wrap;html=1;fillColor=#dae8fc;strokeColor=#6c8ebf;fontSize=16;" parent="1" vertex="1">
          <mxGeometry x="187" y="1470" width="430" height="60" as="geometry" />
        </mxCell>
        <mxCell id="4sxwdQ2FRn1By4ORZ0Yz-16" style="edgeStyle=orthogonalEdgeStyle;rounded=0;orthogonalLoop=1;jettySize=auto;html=1;exitX=0.5;exitY=0;exitDx=0;exitDy=0;entryX=0.5;entryY=1;entryDx=0;entryDy=0;fontSize=16;" parent="1" source="4sxwdQ2FRn1By4ORZ0Yz-4" target="4sxwdQ2FRn1By4ORZ0Yz-5" edge="1">
          <mxGeometry relative="1" as="geometry" />
        </mxCell>
        <mxCell id="4sxwdQ2FRn1By4ORZ0Yz-4" value="Hidden Layer 2" style="rounded=1;whiteSpace=wrap;html=1;fillColor=#dae8fc;strokeColor=#6c8ebf;fontSize=16;" parent="1" vertex="1">
          <mxGeometry x="187" y="1390" width="430" height="60" as="geometry" />
        </mxCell>
        <mxCell id="4sxwdQ2FRn1By4ORZ0Yz-5" value="一维的输出" style="rounded=1;whiteSpace=wrap;html=1;fillColor=#dae8fc;strokeColor=#6c8ebf;fontSize=16;" parent="1" vertex="1">
          <mxGeometry x="342" y="1290" width="120" height="60" as="geometry" />
        </mxCell>
        <mxCell id="4sxwdQ2FRn1By4ORZ0Yz-9" value="" style="edgeStyle=orthogonalEdgeStyle;rounded=0;orthogonalLoop=1;jettySize=auto;html=1;fontSize=16;" parent="1" source="4sxwdQ2FRn1By4ORZ0Yz-7" target="4sxwdQ2FRn1By4ORZ0Yz-1" edge="1">
          <mxGeometry relative="1" as="geometry" />
        </mxCell>
        <mxCell id="4sxwdQ2FRn1By4ORZ0Yz-7" value="用户特征" style="rounded=1;whiteSpace=wrap;html=1;fontSize=16;" parent="1" vertex="1">
          <mxGeometry x="189" y="1740" width="201" height="60" as="geometry" />
        </mxCell>
        <mxCell id="4sxwdQ2FRn1By4ORZ0Yz-10" value="" style="edgeStyle=orthogonalEdgeStyle;rounded=0;orthogonalLoop=1;jettySize=auto;html=1;fontSize=16;" parent="1" source="4sxwdQ2FRn1By4ORZ0Yz-8" target="4sxwdQ2FRn1By4ORZ0Yz-1" edge="1">
          <mxGeometry relative="1" as="geometry" />
        </mxCell>
        <mxCell id="4sxwdQ2FRn1By4ORZ0Yz-8" value="电影特征" style="rounded=1;whiteSpace=wrap;html=1;fontSize=16;" parent="1" vertex="1">
          <mxGeometry x="430" y="1740" width="189" height="60" as="geometry" />
        </mxCell>
        <mxCell id="4sxwdQ2FRn1By4ORZ0Yz-17" value="" style="shape=image;html=1;verticalAlign=top;verticalLabelPosition=bottom;labelBackgroundColor=#ffffff;imageAspect=0;aspect=fixed;image=https://cdn1.iconfinder.com/data/icons/CrystalClear/128x128/actions/button_ok.png" parent="1" vertex="1">
          <mxGeometry x="40" y="1132" width="48" height="48" as="geometry" />
        </mxCell>
        <mxCell id="4sxwdQ2FRn1By4ORZ0Yz-18" value="&lt;font style=&quot;font-size: 26px;&quot;&gt;&amp;nbsp; &amp;nbsp; &amp;nbsp; &amp;nbsp; &amp;nbsp; CNN&lt;/font&gt;" style="rounded=1;whiteSpace=wrap;html=1;fontSize=16;fillColor=#e1d5e7;strokeColor=#9673a6;" parent="1" vertex="1">
          <mxGeometry x="760" y="1290" width="170" height="80" as="geometry" />
        </mxCell>
        <mxCell id="4sxwdQ2FRn1By4ORZ0Yz-20" value="" style="shape=image;verticalLabelPosition=bottom;labelBackgroundColor=default;verticalAlign=top;aspect=fixed;imageAspect=0;image=data:image/png,iVBORw0KGgoAAAANSUhEUgAAAGAAAABgCAYAAADimHc4AAAABmJLR0QA/wD/AP+gvaeTAAAXpUlEQVR4nO1de5gUxbX/nR5mlp3d3ie4M92z7AIrRhcFwkuMLzRfECI+o1ETvYYQicZHvNFoPqNiIr6Sm8SYG4gQjVfUXBWNihjj26igvAQREgRZ2Jma2ffs9OwuO4+u+0d3z2vnuTPLzv0+ft+339dVXXW6pk7Vqapz6pwFjuIojuIoRg002g3IBZIk1QM4H8A3ATQCqNdftRLRAc75q0T0ksvlco5aI3PE/wsGOBwOmXN+F+d8CYAxGYqrANZxzm91u90Hj0Dz8kLRM0CSpPMArAUg5lhVAfAdxtgrhW9V4VDUDJAk6QYAvwMgGHmO2q+hqW4h7NWzUTa2DgDgP+yBu2cz9re9BmfXR7EkVAA3Mcb+cCTbnQuKlgH6yH8ReudXWRtxRvMKSNWz09Zj3Z/g3d13oLc/In1UABcU60woSgY4HA5ZVdU90MWOVD0b58xYiZIxFVnVHwz24rVPr4W7Z4uR5TObzV85ePCge2RaPHwImYsceaiqeg/0zq+yNubU+QBQYq7EwukrUWGdYGRVhEKh5YVvaf4oOgboW82rjfQZzSty6nwDJeZKzG9eEUlzzpc4HA65II0sIIqOAdD2+SZAW3Azyfx0kKrnQq6ZZyTHqKp6fv7NKyyKjgFEtMh4bqpbmDe9JlscjUWpyo0Wio4BnPPJxrM9j9EfpTEnNjk5VbnRQtExAIBkPJSV1OVNrLzEFpt05E2wwMh0rI8ghR5GANDNOd9BRO8S0TMF0MOYjQcOniepITSKbtudkQH6nnw5gO9BXxwTIBORDGAR5/x+SZLWAriTMdY6zDa1Q1ey9Q+2wzJm4jDJaOgb9CTSLiqkFUGSJJ2nH4iWInnnJ8IE4D8A7JRl+Vu5NkaW5VoAXiPNej7JlcQQsO44Gp/nTbDASDkDkulhxk2aB3vzAtQ2zMRYUZPPAz4Pug9uhXv36+j8cpNRtIpz/qwkSTcwxv47XQOamppK+vr6ziWiKznnCwFYjHf7217DCY5vD//X6TQMcM7fyovYCCCpTEzUw5TVNuDExctR2zArLbGuls347JXl6Os+ZGRxzvnFbrf7xcTvSpJ0Cuf8SiK6FEB1Kprnz1oLqWZOqtdp4erehJe3XGUkAyaTaWJraysbFrERwhAGJOphahtmYeZlD8M8NrvTaHCgF1v+9yZ0H9xqZPWazebjDx486HY4HE2qqn4XwHeRfEvIAWwkoiDn/AwAqLQ24OK5z6PEXJnTDzsc9GLdpovhG4gsRY8zxpbkROQIYAgDJElaA+D7gDbyv7b06aw730BwoBcfrLkc/d2RH/8+NHE3L9k3AewHsFYQhLVOp3OfzWYbLwjCbgDjAMBePQsLp6/MmgmHg178/dNr4e6JDILuYDDY3NHR4UlXbzQQ1xn6VvMA9AX35Ksfzyh2UqGrZTM2PZF2wPVwzp8loicZYx8B8ftFu91+ERE9B10MVlgnYH7zCkjVc9N+19W9Ce9+fkfsyAcRveZyuc6FppouKsTtbERRvAraPh/jJs3DsacvGzZha5WMnkPb0O91xWYHAKznnP+8rKxs2aFDh15SFCXpdtXv9+8RRbEVwGIANBjsxb/Zi3D3bEFYHcQYUynGCGOhqkH09h/El22vY9MXv8KW/Y9gMORLJHesKIr1iqKsBwpwuCgg4nZBRLSIc6199uYFeRO3Ny9A54GPjeRnRDTf5XJ1ZVs/EAg8b7FY7gMQOc66ujfC1b0xm+rdRPSxvrMCgCWSJIEx9gMU0UyIOwfE6mFqG2bmTbwmXnxV5dL5AJDQ+X3QZlAmBAA8HgwGm3Wx81jMuyWSJK1GEalgEhtiNx5KysfnTXyseExsMieCkiR9DcB1MVnXCIJg55wv45xvANAK4DCAfmjr1nrO+c1ms7mRMbZEX3BVfcQXLRNSqyIof7VJgh4mlG29pqamkv7+/kehdxLnfIPb7X5af/2o/pctVMbYUkmSBgFcq+ctkSSJGGNLMcriKHEURGymg0r+apNBX5QGEWVNsK+v704AJ+hJHxH9MM+mcMbY9YifCd8rhpkQ93Ei2m88d7VsGVo6R3QdjNLgnGelh5FleRoR/TSmTbflodiLRVGKo8RF+FXj2b379byJx9LIUg8zhnP+Z0RV0u+7XK4/5d2QKIqOCXHngIqKCjeAGwEI/T1O1DbOhrVqeHbsrgOf4Iv3VkbSRHSSKIrB2tranV6vN+l6IEnSLQAM5c0AEX1TUZS4nVNTU1NJaWnpHFEUF4ii+I2Kioo5oihOKisrG+v3+z3IvM/niqKsF0WxHsAMPW/GaJ0TkqkiHgXwAwAoq5mgqSJKc9PDBAa8+HD1FejvSSo5GIAHLBbL6paWlsNGpsPhOFZV1R0ASvWs2xljDxrv7Xb78UR0C4CLAaRqUDvn/EVVVR9sa2s7kKGZgj7yY4/rjx3pc8IQHX9VVdVWzvk1AEqCA73oce6A7bj5MJnHZkUwMODF1r/eBF/bv40sH4AuRO92igAWhsPhJaIohmpra3d4vd5wWVnZ80R0rF5mm644UyVJsoqi+GsiehzATADpGlJGRLMEQbhWFMWqurq697q7u8MpyhbFTBjCAJ/Pp4iiuAvAtwHQQK8b7j1voKJuSkZx1HXgE2x55obYzucALrNYLDeGw+F2ACcBMDR7sYyYQUTn6fkhIjpXURTW0NBgV1X1TQAXIEZGH2MpwcnV4zCrshrNYgXsY0vhD4XQH470tQnAKcFgcL7Val3f19fXl6LJo86ElJt9SZKuB/AwYg0yE+fC3rwANRNmYmyldkAd6HVHDDJdB+KsTyoRXe9yuSILQWNj49hAIPADALcBSMXNBxhjP5NluZZz/k8AxxsvvlpRjSUTJmKqWDmk4RzAZ75ePNb6Jbb7IkY1ENGuwcHBUzo7O5U0/TBq4ijtaUuW5XM5508hOmpzwSOMsRuTvcjACAbgASJaaOhxTES4sfFYXGDLbkPwgseJP7TsQ5hHBvDLjLELkH5EZ8UE3VfhMlVVzyKiqdBU5hzDdBLJeNxtaGiwh0Kh5Vk6R8SiSxCEKU6nsztVAbvdfiUR/U+mBt41pRln1R6TrtgQvNXZhl9+sTvS40R0icvlej5DtZRMaGhoqAsEAg8Q0eWIubmRAiEAj5tMpuWZLHAZDe29vb1+RVHWV1ZWPgZgH+eciCgEbbcyCM2Y8gkR/TYcDt9oMpkWQzMxWlVVrfT7/a8moytJ0jgieglAmZ71NoASJDhiXCbV41J7fWL1jJhkLYc/HMJuf0Q1PUNRlJVIL1KSrgkVFRVzwuHw/UR0MrK7nCAAmMk5v0YUxV2KouxNVbDg92QkSVoM4GU9GQYwhzG2LbGcLMtPcs6/qycPBQKBqeXl5cFAIPBrAD8CgCqzGU9PPxllY3KZeFH0hcO4fPtG9AaDAAAiOtvlcr2dRdVkMyGCU2dZsWi+iFnTSmEbr7XN3R7Clh0D2PCOgg+39scWT+skkg03c4KiKHvLy8vn6FtKAcCJiqI8HlvGZrMtJKLIHl8QhCs8Hs/nXq83JIriAgBzAeACm4xTasYNuy0WQUB3IIDPo7OgV1GUv2dRlSuKsr68vHx2zNYYE+st+OO9dvzoqlo0TxmL6koTzGMI5jGEmkoTph43FhcuqMDcGaXYtmsAXp8KaIP8HFEUtyebCSNy/DaZTDdBE08AcIosy5GrCePGjRMFQVhlpIlordPp3BBT/TTjYV7V8DvfQCwDiWhemqJxkCSphogi1zHmTLNi3coJmDPNmrHu3OlWrFs1AbNPMs6UEACsbWhosCeWHREGOJ3OfUT0X0aac/7gpEmTKgHAYrHcD8DwnGjnnN+cUD2y1ZlgzfxjM2FCaZQG5zwXvcpD0C8FTKy3YNUKCRVi9t1VKZqw6j4JDXJkvU7qJDJiCqhQKHQfNKMJANQNDg4ulyTpVER18oAmGzsTqlYZDxVjMm02MqMifv2okyTpAofDcaIkSSm5q9/Q+46RXnHrMTl1voFK0YQVt0YvBydzEhne6pYF2tra+mRZ/gnn/Fn949cDuBBRpr/CGPtrkqo9AOoAwBcKosZsSVIke/hCcXo/E4AXVVXbCEmS5AawD8B+ItrPOd8vCML+cDh8NhFZAG3BzUbspMLJM0pxykwrPtIWZsNJ5I/G+xFjAAC4XK7nJEl6C8DZ+rca9Fe9giBcm6KaGzoDDg30582AgwOptBAANBOsHcBpxmUEVVVBMdbARfNzdU8eikVnlhsMADQnkQgDRlwHrqrqjQCCsXmc89ucTqcrRZUPjIePuhOlU+5IoLGdiF4DsBfZGfgxa1pp5kIZMHt63AyKuxE44gzweDx7AbTEZA0Eg8GnU5VXVTWyI/p7pwd9oaxNyUPgD4fwekdbJE1Et7hcrkWMseMYY1ZVVScS0dc558sAPERE6wB8GkvjmNr8hUTduDgaR2YNMKAbWY6NySq1WCx3ALg9WXmPx/MPSZL2ApjSGwziCWcLrmtsGta3H29tgS8UmXx7XS7XuzGvwx6PpwXa4Iiz1kmS5Ef0hD6iGNEZIMvyFAB3JXl1syRJx6WoFuac/8JIPOtuxVuduV8QeLOzDevccdcT70T2ms3IB9u7hj8DDXg64mjEid6RZIDAOV+NqIVrC6Ly3QJN1Z0Ubrf7KSJ6AdDUjCv27cY6d/aeT8+5W3Hfvj0RRRzn/HmXy/VstvU553uM582fDmT93VTYvCNONbE/NjFiDJBleRmA0/VkkIiWEtH10PRDALDAbrdfmKq+2Wz+PhHtAoAw5/h9yxe4afd27PR5k+qUOYAdPi9u+Hx7oip6e2lp6dJc2i4IwpvG84Z30pkRssOGd/yRZyKKU06OiNOafst6F3Q7Aud8hdvt/rn+7hEA1+tFWwRBOMHpdCYdZg6HoyYcDr8WqxIAgHGWEkyrqIxsUbsCAezwedEVHLKx2QRgcZLDXjbt3w9d7fzUww7MnT68s8DGbf248ubI7A0JgtAYuwMsuDIOAERRfBrAiXryX2VlZVcYttnq6upNqqougbbIVXHOw4qivJuMjs/nG7DZbE8GAgFDj2MCgP5wGAf6+7Db78Nuvw8HBvowoMaZfgMAfmW326/au3evPxntdFAUxSeK4mQA0wFg264BnP+NCowtyU1geH1hLPsZQ6+iLT2c89WMsWdiy2Q9A1K4qY4B0AFgF+f8byaT6TlVVc8B8JReTQVwOmPswwRa3wewRk8eDofDzW1tbV+m+77D4WgKh8PXEdHVSO3S1AXgmXA4/NtM9DKhvr5eCofDnwGoAYDZJ5Vi1X0SKsXsxqzXF8YP72DYsjMyuXuDweBXEp1EMjIgCzfVWASgHbqMLdwfGGM3JCkn2O32jTGi5WXGWLZxHIS6uroTBEG4m4i+BQD6/v1el8u1CzncQc0ESZJ+AeBOI90gm7HiVhtOnpH+cLZxWz/u+FUbDrHIFlglovNcLtcQ41RaBuQRLgwAPIFAYEoqY7jNZpstCMIm6BsBVVUXeTye15KVTdG25QDu1pP3MMYKGo7GZrOdIQjCBgBDhP8pM61YdGY5Zk2zwn6MdpRibUFs2TmADe/4sXHbEIPMjam8RXNyU83REnRMSUnJxQD+koy+x+PZLEnSY9B8kCEIwsNNTU1v79u3bzBZ+SMJh8MxV1XVVxDtfCe0WV0NAB9t7Y/V7aRDLxF9J9nIN5BUpOgj/y/QOz8PS9Di8vLyXX6/f0+y75SVlW0ioqXQzgq1gUCg3+/3f5CsbCJEUTwTwJl68r1UC3mukGV5Ouf8DURv3zGTyXRGIBD4nclkGg/t1nYmURzinK8OhULf8ng829MVHLKs6/rqtca7PC1BJiJ6VJKkpKYtj8fTgRgZS0R36Iv9qMButx/POf8Hoot8B+f8662trfs7Ojo8jLGrzWZzIxH9BMAr0NQY/QD8APYAeJWIrhMEodHtdv8wG6/MISIoNlxYPpagi5YdwkFXEABqATwI3fU1EYyxVZIkLYW25SsD8Gtot/KOKOrr6yeHw+E3EfXk6SGibzDG4mavHnfuN/pf3ojr2cRwYYWyBAG4MtUsgHYyvh7RS1OXyrJ8Vs4fzQOSJNXrnW+EylEEQVjocrk+TVevEEjs3Ui4sEJZgnSYieiSVGUZYx8S0VojzTl/ZObMmfnbI7PA+PHjbQDehHa2AYB+VVUXO53Oj9NUKxgSPWQiIb0KZQkywDk/L01RBAKBn0K7SQ0AJ3g8nmTnh4JCluVai8XyBoApetYg5/wij8fz3kh/20BKN9URsAQ1pyvb0dHhIaJ7Ytpyd7JrHIXCpEmTKjnnr3POp+pZQQCXud3u/F2DckCiCIqEC0uw4gwLxllBR8bLnS6X6/cAPtOTFYFA4IG8G5EEkiRZDx8+/DI0fwNAOyxdzRj720h8Lx0SGVDQ+/CqGkcumKpcDEJE9GMjQURX2u3209NVyBXNzc0WAOsQVZVzzvm1jLGUZtKRREo31bbO/FUqbZ1RDWW2bqr63U3DeEJE9DAKpLVtbm629PT0vADgnJjsm9xudy5+xwVFSjfVQluCsnVT1XELtNAEADBdkqR8/YQBwNTd3f0U9GAkOm5njD1SANrDRmK0lCrowU0HBzkuXDAcv4woHlrVCadbkzyc85V+vz+rrZ2iKL7y8nJORGfrWfPKysoes1qtYlVV1TWiKP4UmrOeoXWdKoriqRUVFXJNTU1Lb29vog1AkGX5LwAuj8n7JWPs3uH/usIgThsqy7KDc34A+gm5gJYgQDNGP5joHZkKeriCzxC9UfFvABMRE1MuBcIAnhAE4S7d8kR2u30lEUVi73DOf+N2u3+Sy+8ZKaR1U210mLFu1YSsjRAGvL4wLlp2KFYfHousGWGz2RbqKuHhwAvge5zz04joP41Mzvmf3G73tSiSuEFDGKBbgv4FXR9UAEuQov9JCUVd0PyF16RihG45Wx3bTttXZ6P+9LMxfuo0lI7T1Db9He3o2LUDre+/hbbtqUMsENGTLpfrahRRvKBUURMXA/gb9EU6D0sQJ6JLzWbz+kAgcA00p7ykjLBaratjbQF2u/1CPWSZCQBEuR6zf3w7xp84PW0b2ndux+bfPQA/i7/Gwjl/3u12X4borYyiQE5uqjlagjiAuLihundkKkY4ATxotVpXK4pSaTKZdkPTpGL8idNx6t0PwFKenXokoPjwwT23o2PXjkhbwuHw5Cy85484RspNtZdzvsTtdr+Q7GUWjGiFFmERolyPrz+8OuvONxBQfHjjpqXwM+0GiC5+rspQ7YgjrWBXFGVvTU3NE5xzEcA0ZL7IFSKipwRBuIgxljLusNfrDSmK8nFtbe0fQ6FQJxGdhKjduQLRf9CGU++6HxX1DUnppIOppARVjZPR8mbEzNxcVVX1Z5/Pl/9NqwIiXzdVFYCHiD4koj8BuIYx9kS2P9Lr9Yb8fv/HlZWVK1VV7SCiaYi5AGD76myccMXVaSikR5nNjs5dO9HnYYB2VdKjKMpHmeodSRRVOHeHw1GqqupH0C9Ezf7x7Zh0zuK8aO7f8BK2/P4hI7meMZYfwQKjKALXGdCvKNYa6fFTp+VNM2HXdGKqcqOFomKAjojaurQ2/8iN1nFxWvDc4h0cARQjA7JyHcoWXI07c2WjEj+iKEYGRFTiA10deRNLoFFUoeuBImRArEq8/bP8LyUk0NifqtxooegYEBu5sfX9/P/hRev70dgcic4RxYCiY4AewiYEAG3bt6B9Z9qbfWnRvmMr2ndE/odAiIheTld+NFB0DNAjTUWiq2z+zX0Y9PXmTCeg+LD54UhAFnDO16TxTR41jIiHTL6IjdwY8Cvo2rML8rzTYCopyap+wNeLD+65Hd4v9xlZvaFQ6JL+/v6cvWVGGkXJgMTIjf3tbXB++C6qGiejzJb+qlD7jq345/LbYjtfJaJLMt1SHi0UlSoiEclU4nXTZ6H+9LMwfuo0WMdr/0qrr92jG2TejpX5QAbniGJAUTMAyE8lnsk5ohhQlCIoFoqi7BVFcQ20iLkzkZ1KfI3ZbL6ktbV1SKy6YkPRz4BY6DE7z1NV9Vwimoio3aAVwJdE9CoRvVyMu52jOIqjOIoixP8BO3K4Czxb7V4AAAAASUVORK5CYII=;" parent="1" vertex="1">
          <mxGeometry x="777" y="1290" width="70" height="70" as="geometry" />
        </mxCell>
      </root>
    </mxGraphModel>
  </diagram>
</mxfile>
